<svg width="182" height="42" viewBox="0 0 182 42" fill="none" xmlns="http://www.w3.org/2000/svg">
<path d="M19.9 5.9C23.1333 5.9 25.9167 6.48333 28.25 7.65C30.6167 8.78333 32.4167 10.4 33.65 12.5C34.9167 14.5667 35.55 17 35.55 19.8C35.55 20.7667 35.4333 21.9833 35.2 23.45C34.6 26.8833 33.3 29.9333 31.3 32.6C29.3333 35.2667 26.8167 37.3333 23.75 38.8C20.7167 40.2667 17.3667 41 13.7 41H0.55L6.75 5.9H19.9ZM14.45 33.7C17.6833 33.7 20.3667 32.8 22.5 31C24.6333 29.2 25.9667 26.6833 26.5 23.45C26.6667 22.45 26.75 21.6167 26.75 20.95C26.75 18.4833 26 16.5833 24.5 15.25C23 13.8833 20.8667 13.2 18.1 13.2H14L10.4 33.7H14.45ZM54.2781 12.7C57.8781 12.7 60.7281 13.6833 62.8281 15.65C64.9615 17.5833 66.0281 20.2333 66.0281 23.6C66.0281 24.7 65.9448 25.6833 65.7781 26.55C65.6448 27.3167 65.4448 28.1333 65.1781 29H45.8281C45.7948 29.2 45.7781 29.5167 45.7781 29.95C45.7781 31.4167 46.1781 32.5333 46.9781 33.3C47.7781 34.0667 48.8448 34.45 50.1781 34.45C52.3115 34.45 53.9448 33.55 55.0781 31.75H64.1781C62.9781 34.5833 61.0281 36.9 58.3281 38.7C55.6281 40.5 52.5948 41.4 49.2281 41.4C45.6281 41.4 42.7448 40.4 40.5781 38.4C38.4448 36.4 37.3781 33.6833 37.3781 30.25C37.3781 29.2167 37.4781 28.15 37.6781 27.05C38.1781 24.15 39.2115 21.6167 40.7781 19.45C42.3448 17.2833 44.2948 15.6167 46.6281 14.45C48.9615 13.2833 51.5115 12.7 54.2781 12.7ZM57.3781 24.65C57.4448 24.1833 57.4781 23.8667 57.4781 23.7C57.4781 22.3667 57.0615 21.35 56.2281 20.65C55.3948 19.9167 54.2948 19.55 52.9281 19.55C51.4615 19.55 50.1615 20 49.0281 20.9C47.9281 21.7667 47.1281 23.0167 46.6281 24.65H57.3781ZM82.7887 4L76.2387 41H67.6887L74.2387 4H82.7887ZM92.1848 10.2C90.8514 10.2 89.7848 9.85 88.9848 9.15C88.2181 8.41666 87.8348 7.5 87.8348 6.4C87.8348 4.9 88.4181 3.61666 89.5848 2.55C90.7514 1.48333 92.1681 0.949997 93.8348 0.949997C95.1681 0.949997 96.2181 1.31666 96.9848 2.05C97.7514 2.75 98.1348 3.66667 98.1348 4.8C98.1348 6.26667 97.5514 7.53333 96.3848 8.6C95.2181 9.66666 93.8181 10.2 92.1848 10.2ZM95.8848 13.1L90.9848 41H82.4348L87.3348 13.1H95.8848Z" fill="#FFA500"/>
<path d="M128.131 17.2C127.798 19.2333 127.014 21.1 125.781 22.8C124.548 24.4667 122.864 25.8167 120.731 26.85C118.631 27.8833 116.148 28.4 113.281 28.4H107.981L105.731 41H97.1809L103.381 5.9H117.231C120.898 5.9 123.664 6.71666 125.531 8.35C127.398 9.95 128.331 12.1333 128.331 14.9C128.331 15.7333 128.264 16.5 128.131 17.2ZM113.781 21.7C116.981 21.7 118.864 20.2 119.431 17.2C119.498 16.6667 119.531 16.2833 119.531 16.05C119.531 14.9833 119.181 14.1667 118.481 13.6C117.814 13 116.781 12.7 115.381 12.7H110.731L109.181 21.7H113.781ZM145.782 12.7C149.382 12.7 152.232 13.6833 154.332 15.65C156.465 17.5833 157.532 20.2333 157.532 23.6C157.532 24.7 157.449 25.6833 157.282 26.55C157.149 27.3167 156.949 28.1333 156.682 29H137.332C137.299 29.2 137.282 29.5167 137.282 29.95C137.282 31.4167 137.682 32.5333 138.482 33.3C139.282 34.0667 140.349 34.45 141.682 34.45C143.815 34.45 145.449 33.55 146.582 31.75H155.682C154.482 34.5833 152.532 36.9 149.832 38.7C147.132 40.5 144.099 41.4 140.732 41.4C137.132 41.4 134.249 40.4 132.082 38.4C129.949 36.4 128.882 33.6833 128.882 30.25C128.882 29.2167 128.982 28.15 129.182 27.05C129.682 24.15 130.715 21.6167 132.282 19.45C133.849 17.2833 135.799 15.6167 138.132 14.45C140.465 13.2833 143.015 12.7 145.782 12.7ZM148.882 24.65C148.949 24.1833 148.982 23.8667 148.982 23.7C148.982 22.3667 148.565 21.35 147.732 20.65C146.899 19.9167 145.799 19.55 144.432 19.55C142.965 19.55 141.665 20 140.532 20.9C139.432 21.7667 138.632 23.0167 138.132 24.65H148.882ZM171.743 18.15C173.043 16.4833 174.526 15.1833 176.193 14.25C177.893 13.2833 179.659 12.8 181.493 12.8L179.893 21.85H177.543C175.409 21.85 173.726 22.3167 172.493 23.25C171.259 24.15 170.443 25.75 170.043 28.05L167.743 41H159.193L164.093 13.1H172.643L171.743 18.15Z" fill="white"/>
</svg>
